<?xml version="1.0" standalone="no"?>
<!DOCTYPE svg PUBLIC "-//W3C//DTD SVG 20010904//EN"
 "http://www.w3.org/TR/2001/REC-SVG-20010904/DTD/svg10.dtd">
<svg version="1.0" xmlns="http://www.w3.org/2000/svg"
 width="500.000000pt" height="500.000000pt" viewBox="0 0 500.000000 500.000000"
 preserveAspectRatio="xMidYMid meet">

<g transform="translate(0.000000,500.000000) scale(0.100000,-0.100000)"
fill="#000000" stroke="none">
<path d="M2287 3986 c-15 -9 -51 -36 -80 -61 -52 -46 -52 -46 -109 -40 -108
11 -155 -15 -213 -122 -29 -54 -33 -57 -97 -78 -104 -33 -128 -64 -143 -184
-6 -40 -13 -58 -33 -75 -64 -51 -111 -104 -118 -131 -4 -17 0 -57 10 -100 l17
-73 -41 -63 c-38 -59 -41 -68 -38 -119 3 -43 12 -67 41 -111 l38 -56 -17 -71
c-23 -92 -11 -137 47 -184 91 -73 88 -69 98 -144 5 -40 17 -84 27 -98 19 -30
68 -58 132 -75 50 -14 55 -19 91 -91 41 -82 74 -100 180 -100 l87 0 39 -41
c75 -77 132 -87 234 -43 l61 27 61 -27 c105 -45 167 -31 248 58 23 24 30 26
110 26 112 0 138 15 185 108 33 66 37 70 82 81 117 30 154 72 169 194 6 55 9
59 61 98 91 67 107 111 79 214 l-17 63 41 68 c56 93 56 137 0 224 l-40 63 16
68 c10 41 14 80 10 99 -8 37 -49 86 -104 124 -36 26 -40 33 -46 84 -14 121
-43 159 -143 188 -71 20 -77 26 -103 83 -42 95 -101 127 -207 115 l-58 -6 -57
51 c-84 78 -123 84 -231 36 l-53 -23 -59 24 c-80 33 -123 38 -157 20z m115
-131 c32 -15 71 -25 98 -25 27 0 66 10 98 25 30 14 58 25 63 25 6 0 31 -20 57
-44 66 -61 80 -66 174 -66 l83 0 34 -65 c40 -78 66 -100 140 -121 31 -9 62
-22 69 -29 8 -7 17 -43 22 -80 10 -79 26 -104 99 -160 48 -36 52 -42 47 -70
-4 -16 -9 -61 -12 -100 -5 -68 -4 -71 35 -135 l40 -64 -19 -31 c-56 -89 -62
-106 -56 -169 3 -34 8 -75 12 -92 5 -30 2 -35 -48 -74 -62 -48 -98 -108 -98
-161 0 -70 -12 -85 -87 -107 -78 -24 -103 -46 -148 -130 l-30 -57 -63 3 c-88
4 -129 -10 -194 -68 l-56 -50 -48 22 c-95 42 -124 42 -229 0 l-51 -20 -54 49
c-63 56 -105 71 -192 67 l-63 -3 -30 57 c-45 84 -70 106 -147 129 -76 22 -88
37 -88 108 0 53 -36 113 -98 161 -50 39 -53 45 -48 74 3 17 9 58 12 92 7 62 1
79 -57 171 l-20 31 41 63 c45 69 50 112 28 210 -12 52 -12 52 17 73 17 12 49
39 72 61 42 41 44 48 58 157 l6 47 68 21 c88 26 112 46 152 125 l32 65 84 0
c95 0 109 5 175 66 26 24 51 44 57 44 5 0 33 -11 63 -25z"/>
<path d="M2388 3700 c-256 -47 -461 -196 -569 -415 -59 -120 -74 -189 -74
-335 0 -172 39 -304 129 -436 73 -107 227 -231 343 -274 112 -42 180 -52 313
-47 215 7 349 66 506 222 100 99 152 187 196 325 30 97 32 298 5 400 -90 325
-371 550 -707 565 -52 2 -116 0 -142 -5z m337 -106 c215 -79 386 -266 441
-484 22 -86 22 -245 0 -330 -134 -513 -772 -691 -1147 -319 -309 306 -260 814
101 1054 136 90 229 116 400 111 108 -3 136 -7 205 -32z"/>
<path d="M1575 2017 c-43 -117 -108 -295 -145 -397 -104 -283 -114 -315 -107
-333 5 -14 20 -17 84 -17 107 0 230 15 283 35 83 31 82 31 120 -36 22 -40 69
-94 130 -152 110 -104 137 -124 150 -111 5 5 66 163 134 349 68 187 138 378
155 424 17 47 31 86 31 87 0 1 -15 -1 -33 -6 -18 -4 -47 -5 -64 -3 l-30 5
-118 -325 c-65 -179 -121 -331 -126 -338 -19 -32 -137 120 -170 218 -30 93
-35 98 -73 73 -99 -66 -227 -108 -298 -98 l-26 3 139 380 c76 209 139 386 139
393 0 6 -6 12 -13 12 -7 0 -29 11 -48 25 l-37 24 -77 -212z"/>
<path d="M3310 2204 c-19 -13 -40 -24 -47 -24 -7 0 -13 -6 -13 -12 0 -7 61
-179 135 -383 74 -203 135 -375 135 -382 0 -16 -37 -17 -115 -2 -58 11 -134
43 -187 80 -48 35 -63 26 -83 -47 -28 -103 -152 -270 -175 -234 -5 7 -61 160
-126 338 -117 323 -117 324 -144 319 -14 -3 -43 -2 -63 3 -20 4 -37 7 -37 6 0
-12 312 -852 319 -859 14 -14 39 4 145 104 76 71 155 170 168 211 3 7 25 4 66
-11 72 -24 228 -44 322 -39 56 3 65 6 68 23 2 15 -320 921 -331 931 -1 1 -18
-9 -37 -22z"/>
</g>
</svg>
